<svg id="Layer_1" data-name="Layer 1" xmlns="http://www.w3.org/2000/svg" viewBox="0 0 290.77 257.43"><defs><style>.cls-1{fill:#231f20;}.cls-2{fill:#939598;}.cls-3{fill:#414042;}.cls-4{fill:#58595b;}</style></defs><title>base_level2</title><rect class="cls-1" x="341.65" y="380.7" width="31.79" height="248.67" transform="translate(-355.64 -123.9) rotate(-30)"/><rect class="cls-1" x="217.06" y="384.12" width="39.17" height="248.67" transform="translate(134.91 -420.54) rotate(30)"/><polygon class="cls-2" points="145.29 44.95 217.81 75.68 248.56 148.19 219.53 220 147.73 249.04 75.21 218.32 44.46 145.81 73.49 74 145.29 44.95"/><rect class="cls-3" x="119.64" y="36.43" width="51" height="221"/><rect class="cls-3" x="75.64" y="171.33" width="138" height="27.77"/><path class="cls-4" d="M441.79,615.54a12,12,0,0,1-12,12H315.21a12,12,0,0,1-12-12V575.79a12,12,0,0,1,12-12H429.79a12,12,0,0,1,12,12" transform="translate(-151.02 -370.33)"/><path class="cls-4" d="M365,542.54a12,12,0,0,1-12,12H238.38a12,12,0,0,1-12-12V502.79a12,12,0,0,1,12-12H353a12,12,0,0,1,12,12" transform="translate(-151.02 -370.33)"/><path class="cls-4" d="M289.6,615.73a12,12,0,0,1-12,12H163a12,12,0,0,1-12-12V576a12,12,0,0,1,12-12H277.6a12,12,0,0,1,12,12" transform="translate(-151.02 -370.33)"/><polygon class="cls-3" points="145.14 36.44 170.64 36.44 157.89 18.22 145.14 0 132.39 18.22 119.64 36.44 145.14 36.44"/><polygon class="cls-1" points="156.38 164.21 133.62 164.21 117.52 180.81 117.52 204.3 133.62 220.9 156.38 220.9 172.48 204.3 172.48 180.81 156.38 164.21"/></svg>