<svg id="Layer_1" data-name="Layer 1" xmlns="http://www.w3.org/2000/svg" viewBox="0 0 321.8 437.43"><defs><style>.cls-1{fill:#808285;}.cls-2{fill:#414042;}.cls-3{fill:#939598;}.cls-4{fill:#58595b;}.cls-5{fill:#231f20;}</style></defs><title>base_level3</title><polygon class="cls-1" points="210.62 131.11 111.18 131.11 30.73 189.56 0 284.14 30.73 378.72 111.18 437.17 210.62 437.17 291.07 378.72 321.8 284.14 291.07 189.56 210.62 131.11"/><rect class="cls-2" x="87.66" y="174.67" width="138" height="204.43"/><polygon class="cls-3" points="157.32 22.95 229.83 53.68 260.58 126.19 231.55 198 159.75 227.04 87.23 196.32 56.49 123.81 85.51 52 157.32 22.95"/><polygon class="cls-2" points="157.16 36.44 182.66 36.44 169.91 18.22 157.16 0 144.41 18.22 131.66 36.44 157.16 36.44"/><path class="cls-4" d="M452.79,440.54a12,12,0,0,1-12,12H326.21a12,12,0,0,1-12-12V400.79a12,12,0,0,1,12-12H440.79a12,12,0,0,1,12,12" transform="translate(-149 -87.33)"/><rect class="cls-5" x="345.93" y="279.23" width="37.92" height="248.67" transform="translate(-301.9 149.18) rotate(-30)"/><path class="cls-4" d="M300.6,440.73a12,12,0,0,1-12,12H174a12,12,0,0,1-12-12V401a12,12,0,0,1,12-12H288.6a12,12,0,0,1,12,12" transform="translate(-149 -87.33)"/><rect class="cls-5" x="227.06" y="281.12" width="39.17" height="248.67" transform="translate(86.77 -156.33) rotate(30)"/><rect class="cls-2" x="131.66" y="36.17" width="51" height="401.27"/><path class="cls-4" d="M383.5,370.54c0,6.6-2.7,12-6,12H320.21c-3.3,0-6-5.4-6-12V330.79c0-6.6,2.7-12,6-12H377.5c3.3,0,6,5.4,6,12" transform="translate(-149 -87.33)"/><polygon class="cls-5" points="170.78 87.71 143.7 87.71 124.54 107.47 124.54 135.41 143.7 155.17 170.78 155.17 189.94 135.41 189.94 107.47 170.78 87.71"/><path class="cls-4" d="M299.6,512.73a12,12,0,0,1-12,12H173a12,12,0,0,1-12-12V473a12,12,0,0,1,12-12H287.6a12,12,0,0,1,12,12" transform="translate(-149 -87.33)"/><path class="cls-4" d="M451.79,512.54a12,12,0,0,1-12,12H325.21a12,12,0,0,1-12-12V472.79a12,12,0,0,1,12-12H439.79a12,12,0,0,1,12,12" transform="translate(-149 -87.33)"/><path class="cls-4" d="M300.6,370.73c0,6.6-2.7,12-6,12H237.31c-3.3,0-6-5.4-6-12V331c0-6.6,2.7-12,6-12H294.6c3.3,0,6,5.4,6,12" transform="translate(-149 -87.33)"/></svg>