<svg id="Layer_1" data-name="Layer 1" xmlns="http://www.w3.org/2000/svg" viewBox="0 0 100.98 25.78"><defs><style>.cls-1{fill:#fff;}</style></defs><title>launch</title><path class="cls-1" d="M271.91,334.43V309h4.76v25.45Z" transform="translate(-271.91 -308.98)"/><path class="cls-1" d="M295.29,329.74a44.17,44.17,0,0,0,.25,4.69h-4.17a16,16,0,0,1-.27-2.19c-.76,1.47-2.46,2.51-5.08,2.51-4.48,0-6.06-2.8-6.06-5.53,0-3.27,2.26-6,8.54-6h2.13V322c0-1.48-.46-2.63-2.59-2.63s-2.61,1.07-2.78,2.41h-4.6c.19-2.86,1.9-5.77,7.46-5.77,4.28,0,7.17,1.48,7.17,6Zm-4.5-3.43h-2.21c-3.25,0-3.85,1.32-3.85,2.53a2.22,2.22,0,0,0,2.54,2.3c2.85,0,3.52-1.89,3.52-4.45Z" transform="translate(-271.91 -308.98)"/><path class="cls-1" d="M314.78,329.08c0,2.61,0,4.42.07,5.35h-4.63a16.64,16.64,0,0,1-.17-2.17c-1.12,1.89-2.73,2.49-5,2.49-3.62,0-5.6-2.27-5.6-6.35V316.31h4.73v11.3c0,1.9.67,3.22,2.63,3.22s3.18-1.23,3.18-4.41V316.31h4.77Z" transform="translate(-271.91 -308.98)"/><path class="cls-1" d="M319.26,322c0-3.73,0-4.85-.07-5.65h4.64a18.77,18.77,0,0,1,.16,2.35A5.47,5.47,0,0,1,329,316c3.8,0,5.72,2.43,5.72,6.6v11.87H330v-11c0-2.05-.51-3.58-2.76-3.58s-3.22,1.26-3.22,4.43v10.11h-4.76Z" transform="translate(-271.91 -308.98)"/><path class="cls-1" d="M354.25,328.11c-.53,3.64-2.82,6.64-7.91,6.64-5.54,0-8.15-3.43-8.15-9.35,0-5.74,3.19-9.44,8.44-9.44,5.92,0,7.51,4.26,7.62,6.77h-4.74c-.18-1.63-.93-3.13-3-3.13-2.5,0-3.51,2.29-3.51,5.62,0,4.23,1.28,5.93,3.42,5.93s2.71-1.34,3.11-3Z" transform="translate(-271.91 -308.98)"/><path class="cls-1" d="M362.15,309v9.52c.85-1.49,2.45-2.54,5-2.54,3.24,0,5.71,1.79,5.71,6.57v11.9H368.2V323.25c0-1.95-.63-3.36-2.85-3.36s-3.2,1.55-3.2,4.45v10.09h-4.76V309Z" transform="translate(-271.91 -308.98)"/></svg>