<svg id="Layer_1" data-name="Layer 1" xmlns="http://www.w3.org/2000/svg" viewBox="0 0 200.94 53.88"><defs><style>.cls-1,.cls-2,.cls-3{fill:#fff;}.cls-2,.cls-3{stroke:#fff;stroke-miterlimit:10;}.cls-2{stroke-width:1.8px;}.cls-3{stroke-width:0.25px;}</style></defs><title>title</title><path class="cls-1" d="M112.66,258.56v24.5h-1.89v-24.5Z" transform="translate(-110.77 -258.56)"/><path class="cls-1" d="M118.68,270c0-1.54,0-3,0-4.41h1.71c.07.56.11,2.83.07,3.32a5.72,5.72,0,0,1,5.81-3.74c3.12,0,5.88,1.75,5.88,6.58v11.34h-1.75V272c0-3.12-1.29-5.15-4.34-5.15-4.16,0-5.6,3.47-5.6,7.28v8.93h-1.75Z" transform="translate(-110.77 -258.56)"/><path class="cls-1" d="M135.13,265.56h3.26V260.1h1.75v5.46h4.16v1.64h-4.16v11.38c0,2,.42,3.08,2.1,3.08a6.84,6.84,0,0,0,1.82-.21V283a6.3,6.3,0,0,1-2.17.31c-2.24,0-3.5-1.12-3.5-3.92V267.2h-3.26Z" transform="translate(-110.77 -258.56)"/><path class="cls-1" d="M148.05,274.52c0,4.51,2.31,7.31,5.67,7.31a4.92,4.92,0,0,0,5-3.29h1.78a6.71,6.71,0,0,1-6.89,4.94c-5.32,0-7.39-4.59-7.39-9,0-5,2.49-9.31,7.6-9.31,5.39,0,7.1,4.65,7.1,7.94,0,.49,0,1,0,1.44ZM159.14,273c0-3.47-1.92-6.2-5.35-6.2-3.61,0-5.25,2.52-5.64,6.2Z" transform="translate(-110.77 -258.56)"/><path class="cls-1" d="M165.23,270.32c0-2.94,0-4.2,0-4.76h1.71c0,.56.07,1.68.07,3.92a6.63,6.63,0,0,1,6.09-4.34V267c-3.64.24-6.09,2.76-6.09,6.93v9.1h-1.75Z" transform="translate(-110.77 -258.56)"/><path class="cls-1" d="M286.81,305.78v-3.24l4.14-4c10-9.48,14.46-14.52,14.52-20.4,0-4-1.92-7.62-7.74-7.62a13.28,13.28,0,0,0-8.28,3.3l-1.68-3.72a17.11,17.11,0,0,1,11-4c8.4,0,11.94,5.76,11.94,11.34,0,7.2-5.22,13-13.44,20.94l-3.12,2.88v.12h17.52v4.38Z" transform="translate(-110.77 -258.56)"/><path class="cls-1" d="M112.84,303.33v9.11h-1.75V293.25c0-1.36,0-2.82,0-4.09h1.71c.07.64.07,1.63.07,3a6.48,6.48,0,0,1,6.16-3.39c4.13,0,7,3.29,7,8.27,0,6-3.36,9.15-7.59,9.15C115.33,306.19,113.72,304.89,112.84,303.33Zm11.31-6.22c0-3.86-2-6.75-5.43-6.75-4.23,0-6,2.53-6,7.05s1.36,7.22,5.74,7.22C122.12,304.63,124.15,301.7,124.15,297.11Z" transform="translate(-110.77 -258.56)"/><path class="cls-1" d="M130.37,305.79V281.28h1.76v24.51Z" transform="translate(-110.77 -258.56)"/><path class="cls-1" d="M149.63,302.63a18.78,18.78,0,0,0,.24,3.16h-1.68a10.51,10.51,0,0,1-.31-2.56c-.6,1.23-2.14,3-5.74,3-4.07,0-5.82-2.5-5.82-5,0-3.66,3-5.32,8.23-5.32h3.33v-1.69c0-1.67-.53-3.9-4.52-3.9-3.53,0-4.06,1.77-4.44,3.13h-1.76c.22-1.83,1.4-4.65,6.24-4.65,4,0,6.23,1.59,6.23,5.25Zm-1.72-5.32h-3.43c-3.88,0-6.3,1-6.3,3.82,0,2.1,1.57,3.53,4,3.53,5,0,5.7-3.16,5.7-6.75Z" transform="translate(-110.77 -258.56)"/><path class="cls-1" d="M155.4,293.35c0-1.46,0-2.86,0-4.19h1.72c.07.54.1,2.7.07,3.16.77-1.69,2.2-3.55,5.81-3.55,3.12,0,5.88,1.66,5.88,6.25v10.77h-1.75V295.28c0-3-1.29-4.88-4.34-4.88-4.17,0-5.6,3.29-5.6,6.91v8.48H155.4Z" transform="translate(-110.77 -258.56)"/><path class="cls-1" d="M175,297.68c0,4.29,2.31,6.95,5.67,6.95a4.93,4.93,0,0,0,5.05-3.13h1.78c-.73,2.19-2.59,4.69-6.9,4.69-5.32,0-7.38-4.36-7.38-8.58,0-4.75,2.48-8.84,7.59-8.84,5.4,0,7.11,4.42,7.11,7.54,0,.47,0,.93,0,1.37Zm11.1-1.47c0-3.29-1.92-5.88-5.35-5.88-3.61,0-5.26,2.39-5.64,5.88Z" transform="translate(-110.77 -258.56)"/><path class="cls-1" d="M189.8,289.16h3.26V284h1.75v5.18H199v1.57h-4.16v10.8c0,1.87.42,2.93,2.1,2.93a6.82,6.82,0,0,0,1.82-.2v1.46a6.3,6.3,0,0,1-2.17.3c-2.24,0-3.5-1.06-3.5-3.72V290.73H189.8Z" transform="translate(-110.77 -258.56)"/><path class="cls-1" d="M214.55,302.63a18.78,18.78,0,0,0,.24,3.16h-1.68a10.51,10.51,0,0,1-.31-2.56c-.6,1.23-2.14,3-5.74,3-4.06,0-5.81-2.5-5.81-5,0-3.66,3-5.32,8.22-5.32h3.33v-1.69c0-1.67-.53-3.9-4.52-3.9-3.53,0-4.06,1.77-4.44,3.13h-1.75c.21-1.83,1.4-4.65,6.23-4.65,4,0,6.23,1.59,6.23,5.25Zm-1.72-5.32H209.4c-3.88,0-6.3,1-6.3,3.82,0,2.1,1.58,3.53,4,3.53,5,0,5.7-3.16,5.7-6.75Z" transform="translate(-110.77 -258.56)"/><path class="cls-1" d="M220.32,293.69c0-2.8,0-4,0-4.53H222c0,.54.07,1.6.07,3.73a6.62,6.62,0,0,1,6.09-4.12v1.79c-3.64.23-6.09,2.63-6.09,6.58v8.65h-1.75Z" transform="translate(-110.77 -258.56)"/><path class="cls-1" d="M231.38,281.28h1.75v3.23h-1.75Zm0,7.88h1.75v16.63h-1.75Z" transform="translate(-110.77 -258.56)"/><path class="cls-1" d="M252,300.93c0,1.63,0,4.23,0,4.86h-1.68a25,25,0,0,1-.11-2.89c-.73,2-2.52,3.29-5.63,3.29-2.52,0-5.74-.93-5.74-6v-11h1.71v10.61c0,2.43.81,4.79,4.27,4.79,3.92,0,5.39-2.1,5.39-6.85v-8.55H252Z" transform="translate(-110.77 -258.56)"/><path class="cls-1" d="M257.7,293.45c0-1.43,0-3,0-4.29h1.71c0,.57.11,2,.07,3a5.48,5.48,0,0,1,5.25-3.35c2.45,0,4.38,1.16,5.08,3.29a6,6,0,0,1,5.7-3.29c2.7,0,5.5,1.46,5.5,6.08v10.94h-1.75V295.05c0-2.23-.84-4.65-4.1-4.65s-4.93,2.59-4.93,5.81v9.58h-1.72V295.08c0-2.42-.77-4.68-4-4.68-3.39,0-5,2.85-5,6.25v9.14H257.7Z" transform="translate(-110.77 -258.56)"/><line class="cls-2" x1="20.49" y1="12.86" x2="20.49" y2="48.75"/><line class="cls-3" x1="21.27" y1="12.89" x2="21.1" y2="11.63"/></svg>